<?xml version="1.0" encoding="UTF-8"?>
<!DOCTYPE svg PUBLIC "-//W3C//DTD SVG 1.1//EN" "http://www.w3.org/Graphics/SVG/1.1/DTD/svg11.dtd">
<!-- Creator: CorelDRAW 2019 (64-Bit) -->
<svg xmlns="http://www.w3.org/2000/svg" xml:space="preserve" width="2.7938mm" height="1.5238mm" version="1.1" style="shape-rendering:geometricPrecision; text-rendering:geometricPrecision; image-rendering:optimizeQuality; fill-rule:evenodd; clip-rule:evenodd"
viewBox="0 0 279.38 152.38"
 xmlns:xlink="http://www.w3.org/1999/xlink">
 <defs>
  <style type="text/css">
   <![CDATA[
    .fil0 {fill:#81B144}
   ]]>
  </style>
 </defs>
 <g id="Слой_x0020_1">
  <metadata id="CorelCorpID_0Corel-Layer"/>
  <path class="fil0" d="M197.12 117.12l0 0zm-80.83 -40.83c0,-2.19 1.02,-5.89 1.7,-7.58 2.68,-6.76 10.56,-11.52 17.4,-11.52 10.2,0 19.1,8.9 19.1,19.1 0,16.97 -21.48,25.31 -32.49,13.39 -2.91,-3.14 -5.71,-7.73 -5.71,-13.39zm-16.37 -2.18c0,9.29 1.02,15.01 6.32,22.6 5.9,8.45 16.35,15.05 26.97,15.05 11.27,0 16.67,-1.63 25.03,-8.25 2.84,-2.25 3.97,-3.57 6.08,-6.48 9.6,-13.26 8.69,-30.47 -1.71,-43.59 -2.25,-2.84 -3.57,-3.97 -6.48,-6.08 -24.17,-17.5 -56.21,1.84 -56.21,26.75zm-26.12 43.01l0 0zm4.36 -40.93c0,-3.88 0.91,-9.37 1.58,-12.61 0.78,-3.77 2.01,-7.46 3.51,-10.68 20.67,-44.34 82.18,-45.88 104.24,-0.37 5.48,11.29 6.23,24.05 3.69,36.27 -8.7,41.83 -63.16,60.77 -96.13,27.8 -10.35,-10.36 -16.89,-25.43 -16.89,-40.41zm118.96 -40.93c7.23,1.68 31.32,18.59 37.74,23.39 3.44,2.57 18.27,14.79 20.11,17.54 -1.78,2.66 -3.9,3.58 -6.15,5.86 -8.75,8.88 -42.87,33.01 -51.7,35.07 0.87,-3.26 12.02,-15.86 12.01,-40.93 -0.01,-25.19 -11.09,-37.51 -12.01,-40.93zm-123.32 81.86c-2.64,-0.62 -13.64,-6.92 -16.05,-8.51 -10.16,-6.72 -26.98,-17.69 -35.38,-26.28 -2.19,-2.24 -4.72,-3.6 -6.42,-6.14 1.78,-2.66 3.9,-3.59 6.15,-5.86 2.18,-2.21 4.21,-3.87 6.72,-5.83 16.04,-12.62 17.42,-13.75 36.56,-25.1 2.23,-1.33 5.93,-3.56 8.42,-4.14l-4.55 8.55c-11.2,22.39 -9.64,47.06 1.99,68.76 0.96,1.79 2.04,2.6 2.56,4.55zm123.32 -81.86l0 0zm-123.32 0l0 0zm-78.04 39.84c0,5.55 0.8,5.44 5.05,9.68l20.67 18.62c2.56,2.03 4.62,3.72 7.33,5.77 28.05,21.13 67.87,40.69 103.38,40.69 31.57,0 51.52,-7.22 77.49,-20.19l16.59 -9.6c9.36,-6.27 13.91,-9.17 22.87,-16.42l7.15 -5.95c4.46,-3.47 18.87,-16.06 18.87,-20.42 0,-5.55 -0.8,-5.44 -5.05,-9.69l-10.07 -9.57c-1.42,-1.19 -1.96,-1.98 -3.43,-3.11 -8.23,-6.31 -11.97,-9.77 -22.14,-17.15 -23.77,-17.27 -63.15,-35.24 -95.74,-35.24 -25.29,0 -47.44,5.32 -68.76,15.82 -9.64,4.75 -16.36,8.1 -25.32,13.97 -9.01,5.89 -14.45,9.64 -22.87,16.42l-10.61 9.04c-3.62,3.2 -15.41,13.04 -15.41,17.33z"/>
 </g>
</svg>
