<?xml version="1.0" encoding="UTF-8"?>
<!DOCTYPE svg PUBLIC "-//W3C//DTD SVG 1.1//EN" "http://www.w3.org/Graphics/SVG/1.1/DTD/svg11.dtd">
<!-- Creator: CorelDRAW 2019 (64-Bit) -->
<svg xmlns="http://www.w3.org/2000/svg" xml:space="preserve" width="5.0798mm" height="4.8258mm" version="1.1" style="shape-rendering:geometricPrecision; text-rendering:geometricPrecision; image-rendering:optimizeQuality; fill-rule:evenodd; clip-rule:evenodd"
viewBox="0 0 507.98 482.58"
 xmlns:xlink="http://www.w3.org/1999/xlink">
 <defs>
  <style type="text/css">
   <![CDATA[
    .fil0 {fill:#81B144}
   ]]>
  </style>
 </defs>
 <g id="Слой_x0020_1">
  <metadata id="CorelCorpID_0Corel-Layer"/>
  <path class="fil0" d="M239.11 451.89c-13.81,0 -17.86,-10.21 -17.86,-21.83 0,-6.68 8.73,-13.19 12.65,-17.12 5.04,-5.04 9.51,-11.65 19.1,-11.65 9.95,0 17.86,7.82 17.86,18.85 0,11.39 -21.87,31.75 -31.75,31.75zm-59.53 -36.71c-12.5,0 -20.84,-4.91 -20.84,-18.85 0,-9.19 7.23,-13.68 12.15,-18.61 6.94,-6.93 9.02,-12.15 20.59,-12.15 8.01,0 16.87,7.28 16.87,14.88l0 5.95c0,7.92 -20.86,28.78 -28.77,28.78zm-50.61 -47.63l-5.95 0c-7.52,0 -14.88,-7.21 -14.88,-18.85 0,-9.18 7.23,-13.68 12.15,-18.6 7.89,-7.89 9.35,-12.16 21.58,-12.16 9.87,0 22.78,15.19 11.8,29.66 -4.42,5.82 -17.58,19.95 -24.7,19.95zm-46.63 -53.58c-5.81,0 -10.23,-1.89 -13.46,-5.39 -14.7,-15.9 3.64,-28.89 11.23,-36.53 4.06,-4.09 5.72,-7 12.96,-7.88 18.44,-2.25 27.56,18.1 13.85,32.71 -5.29,5.62 -14.86,17.09 -24.58,17.09zm196.45 -175.61l-6.94 0c-14.15,0 -29.02,-12.31 -34.73,-20.84 22.54,-15.09 57.82,-78.38 121.05,-78.38 27.48,0 46.78,5.8 67.87,20.43l14.75 12.04c2.89,2.74 3.53,4.02 5.98,6.92 14.92,17.64 28.48,41.65 28.48,66.77 0,26.62 -0.86,34.25 -12.89,58.55 -3.68,7.43 -18.38,28.42 -24.82,32.73l-121.79 -121.29c-7.9,5.4 -17.98,23.07 -36.96,23.07zm-88.54 -20.09c4.55,3.13 28.51,28.27 34.7,34.25 17.46,16.86 44.3,23.79 71.3,16.19 7.53,-2.12 12.54,-6.2 18.26,-7.53 5.08,3.4 80.79,80.31 93.52,93.01 4.57,4.57 9.67,8.39 9.67,17.12 0,8.17 -7.12,17.86 -14.88,17.86 -14.7,0 -14.45,-3.04 -28.03,-16.62 -8.14,-8.14 -56.91,-57.86 -61.27,-60.77l-22.58 23.06c2.62,4.01 60.53,61.14 69.97,70.44 15.23,15.03 4.58,33.5 -10.68,33.5 -10.74,0 -18.16,-10.72 -24.06,-16.62 -8.14,-8.14 -56.91,-57.86 -61.27,-60.77l-23.06 22.58c3.12,4.55 52.7,53.19 61.02,61.51 5.9,5.9 16.61,13.31 16.61,24.06 0,8.17 -7.12,17.86 -14.88,17.86 -16.78,0 -11.58,-3.22 -24.47,-11.25 -18.08,-11.25 -27.06,-6.9 -40.02,-6.61 -6.27,-13.06 -3.17,-13.06 -17.62,-26.04 -6.26,-5.63 -20.33,-11.67 -31.99,-11.67 0,-23.11 -22.41,-44.86 -43.66,-46.63 0,-18.28 -4.85,-29.22 -14.12,-38.46 -13.52,-13.46 -31.61,-19.69 -51.38,-14.15 -3.93,1.1 -7.06,3.1 -10.89,3.99 -8.28,-5.54 -21.33,-24.28 -26.15,-34.38 -48.65,-102.02 62.23,-205.17 162.03,-145.16 7.2,4.33 19.34,14.04 23.86,20.79l-39.93 40.44zm-190.26 28.02c0,33.11 3.91,49.48 17.86,76.4 1.14,2.2 1.74,3.58 3.16,5.77 2.5,3.87 4.91,7.59 7.6,11.26l17.02 19.68c-3.24,4.84 -4.54,3.08 -9.62,13.21 -16.43,32.8 7.02,71.5 38.39,74.11 0,22.29 10.32,40.03 29.74,49.63 5.67,2.8 13.32,4.94 21.86,4.94 0,26.5 27.64,53.99 63.5,45.64 4.65,19.97 24.5,37.7 49.61,37.7 21.01,0 31.71,-10.38 42.41,-21.08 10.64,-10.64 22.08,-21.56 22.08,-42.42 18.76,0 35.62,-13.68 43.35,-28.09 3.64,-6.79 5.27,-13.11 5.27,-21.52 26.38,0 49.05,-23.6 49.61,-48.62 18.18,0 35.15,-13.61 42,-25.46 8.51,-14.71 5.85,-23.39 7.1,-26.63l24.46 -26.15c2.72,-3.34 4.69,-5.85 7.2,-9.66 2.45,-3.71 4.63,-6.56 6.56,-10.31 14.58,-28.23 18.84,-43.75 18.84,-78.4 0,-35.75 -18.57,-73.59 -42.9,-97.98l-19.03 -15.7c-53.46,-38.73 -133.41,-33.66 -181.4,11.25 -3.51,3.29 -8.33,5.11 -9.68,10.16 -4.21,-1.12 -2.48,-1.21 -4.82,-4.11 -4.04,-5 -21.31,-17.77 -27.11,-21.5 -2.36,-1.52 -3.8,-2.08 -6.34,-3.58 -50.09,-29.71 -119.9,-22.51 -163.83,14.61 -3.49,2.96 -6.29,5.15 -9.49,8.38 -24.8,25.05 -43.4,61.78 -43.4,98.47z"/>
 </g>
</svg>
