<?xml version="1.0" encoding="UTF-8"?>
<!DOCTYPE svg PUBLIC "-//W3C//DTD SVG 1.1//EN" "http://www.w3.org/Graphics/SVG/1.1/DTD/svg11.dtd">
<!-- Creator: CorelDRAW 2019 (64-Bit) -->
<svg xmlns="http://www.w3.org/2000/svg" xml:space="preserve" width="6.2652mm" height="5.0798mm" version="1.1" style="shape-rendering:geometricPrecision; text-rendering:geometricPrecision; image-rendering:optimizeQuality; fill-rule:evenodd; clip-rule:evenodd"
viewBox="0 0 626.52 507.98"
 xmlns:xlink="http://www.w3.org/1999/xlink">
 <defs>
  <style type="text/css">
   <![CDATA[
    .fil0 {fill:#81B144}
   ]]>
  </style>
 </defs>
 <g id="Слой_x0020_1">
  <metadata id="CorelCorpID_0Corel-Layer"/>
  <path class="fil0" d="M309.07 381.15l2.53 -51.49c13.64,-1.86 28.15,-5.44 41.67,-7.8 4.82,-0.84 9.8,4.43 15.71,8.75l185.34 137.95 -245.25 -87.41zm-38.56 -184.82c-9.93,4.91 -10.5,6.18 -18.01,13.46 -12.05,11.69 -28.56,22.94 -14.41,38.36 3.61,3.94 21.91,18.44 26.76,20.8 1.73,0.83 3.82,1.72 6.25,1.47 6.7,-0.7 -3.61,-13.19 3.03,-33.37 3.27,-9.95 13.7,-24 6.41,-35.71 -1.72,-2.75 -5.54,-7.23 -10.03,-5.01zm43.79 5.11c3.09,1.48 8.22,2.17 10.99,3.94 4.2,2.68 1.04,8.43 2.55,12.95 4.31,4.81 13.66,0.12 18.91,3.13 -1.25,6.25 -10.03,0.11 -16.08,3.85 1.05,5.4 8.8,3.36 14.19,3.29 5.9,-0.08 12.44,-0.89 18.09,-1.66 23.27,-3.13 62.9,-1.73 83.56,-12.72 3.32,-1.76 9.17,-6.13 9.08,-10.28 -11,-6.43 -99.84,-4.33 -123.85,-3.76l-17.44 1.26zm54.14 -50.47c3.46,1.06 22.14,-3.09 31.56,-3.7 8.89,-0.58 27.97,-1.84 36.21,-1.6 15.55,0.46 29.59,2.5 45.67,2.16 23.85,-0.49 64.62,-12.52 82.28,-29.91 3.24,-3.19 5.79,-4.96 8.45,-7.82 15.8,-16.97 31.78,-39.63 31.88,-63.81 0.03,-5.45 -0.15,-10.18 -0.79,-15.37 -0.47,-3.75 -1.01,-9.85 -4.2,-12.03 -3.38,0.67 -3.47,2.86 -5.4,5.74 -1.61,2.4 -2.94,4 -4.59,6.66 -5.49,8.8 -12.87,17.42 -19.45,25.61l-11.59 11.54c-5.45,5.57 -18.38,15.18 -26.45,19.22 -9.79,4.9 -21.43,9.53 -33.05,12.63 -23.75,6.33 -49.13,5.36 -77.5,13.16 -17.09,4.7 -31.5,12.65 -43.99,24.26 -2.54,2.36 -10.12,8.36 -9.04,13.26zm160.6 -150.98l-2.71 0c-4.13,2.51 -1.77,0.78 -6.31,9.98 -6.79,13.74 -13.5,18.17 -30.61,19.96 -22.05,2.31 -43.05,0.43 -65.08,0.36 -41.99,-0.13 -86.28,1.07 -125.55,8.57 -17.8,3.4 -37.44,7.74 -52.2,14.87 -16.94,8.19 -25.65,16.26 -35.8,31.75 -17.35,26.44 -20.01,48.59 -9.39,79.88 1.21,3.57 6.38,21.61 10.74,22.83 1.1,-5.76 -2.84,-25.43 -3.44,-32.4 -0.72,-8.49 0.67,-25.75 6.06,-29.8 8.74,1.97 -4.85,24.75 8.28,39.66 2.19,2.5 5.77,3.87 8.68,1.45 2.51,-2.09 8.32,-15.9 14.19,-23.35 6.51,-8.26 12.85,-14.96 21.19,-21.98 1.27,-1.07 2.29,-1.83 3.52,-2.75 5.16,-3.83 27.99,-16.67 36.37,-13.01 0.09,0.17 0.18,0.25 0.2,0.55 0.17,3.23 -0.38,4.29 -3.65,8.48 -9.87,12.68 -27.52,20.5 -28.19,40.09 -0.21,6.31 1.2,19.88 5.1,22.75 2.52,-1.36 2.69,-5.01 4.26,-9.76 9.13,-27.66 20.3,-40.58 46.3,-50.65 37.95,-14.7 49.85,-15.47 90.24,-20.98 31.17,-4.26 69.32,-17.02 90.85,-34.39 13.52,-10.91 26.93,-22.71 26.28,-43.36 -0.14,-4.16 -2.12,-13.6 -4.52,-16.29 -1.9,-2.11 -2.78,-1.22 -4.81,-2.46zm-468.68 455.38l61.33 -78.6c3.23,-4.21 5.21,-7.35 10.16,-10.49l66.82 -43.29c2.96,-1.96 2.92,-2.77 7.28,-2.62 12.68,0.42 26.28,0.76 38.89,1.73 -1.94,2.44 -18.63,13.77 -22.73,16.83 -7.65,5.72 -15.56,11.44 -23.26,16.79l-46.17 33.28c-7.69,5.61 -15.26,10.8 -22.89,16.51 -15.49,11.61 -30.65,21.68 -46.17,33.29l-23.26 16.57zm310.03 -153.84l223.61 -1.44 -2.84 1.89c-1.28,0.58 -2.15,0.94 -3.45,1.54l-86.84 39.56c-4.82,2.18 -5.24,0.86 -14.05,-2.01 -12.06,-3.94 -113.67,-37.56 -116.43,-39.54zm-266.48 -9.16c3.11,-2.04 70.21,-14.9 84.52,-17.78 8.9,-1.79 8.24,-0.83 15.8,2.41 4.92,2.12 9.46,4.07 14.48,6.16 2.5,1.05 4.61,2 7.03,2.99 2.16,0.9 5.75,2.1 7.27,3.57l-129.1 2.65zm-103.01 11.67l-0.15 26.9 27.16 12.28c14.56,6.42 72.8,31.53 82.16,36.59l-68.04 83.72c-8.44,10 -6.51,7.23 -6.64,18.81 -0.1,8.14 -0.62,17.66 -0.13,25.65l1.07 0c2.5,-1.83 59.84,-19.85 67.87,-22.36 68.17,-21.27 137.63,-45.4 205.63,-66.54 4.9,-1.52 12.79,2.14 17.6,3.72 38.29,12.6 81.98,25.47 120.79,37.52 13.65,4.24 135.76,42.67 138.46,42.46 -0.05,-8.17 0.4,-16.65 0.63,-24.84 0.18,-6.27 -3.95,-10.22 -8.6,-17.36 -6.89,-10.59 -13.63,-20.58 -20.29,-31.02 -3.27,-5.13 -39.13,-58.91 -40.45,-62.51l107.81 -45.02 0 -32.86c-14.92,-1.09 -30.84,-3.31 -45.74,-4.99 -22.84,-2.57 -179.88,-19.05 -183.97,-20.69 -26.8,-10.78 -42.89,-30.49 -77.17,-22.35 -16.59,3.93 -26.72,22.75 -24.05,25.88 0.99,0.79 -1.28,0.61 1.81,0.62 1.69,0.01 4.38,-2 5.68,-3.02 4.3,-3.41 14.91,-15.44 18.23,-16.81 7.66,-3.17 35.28,-9.57 33.48,4.79 -3.86,3.03 -7.01,2.01 -12.66,2.85 -4.63,0.7 -7.08,3.25 -10.18,5.52 -11.2,8.21 0.48,11.45 9.2,13.8 3.34,0.89 9.99,2.33 7.83,6.91 -2.99,6.34 -18.13,-6.57 -24.37,-1.79 -4.21,3.22 -1.29,6.41 -9.33,6.99 -20.79,1.49 -40.85,0.31 -61.63,0.06 -16.55,-0.2 -9.7,0.78 -25.86,-5.85 -7.68,-3.15 -14.77,-6.29 -22.47,-9.43 -6.3,-2.58 -17.7,-8.67 -22.3,-7.68 -21.44,4.6 -178.03,40.26 -181.38,40.05z"/>
 </g>
</svg>
