<?xml version="1.0" encoding="UTF-8"?>
<!DOCTYPE svg PUBLIC "-//W3C//DTD SVG 1.1//EN" "http://www.w3.org/Graphics/SVG/1.1/DTD/svg11.dtd">
<!-- Creator: CorelDRAW 2019 (64-Bit) -->
<svg xmlns="http://www.w3.org/2000/svg" xml:space="preserve" width="1.1852mm" height="1.6932mm" version="1.1" style="shape-rendering:geometricPrecision; text-rendering:geometricPrecision; image-rendering:optimizeQuality; fill-rule:evenodd; clip-rule:evenodd"
viewBox="0 0 118.52 169.32"
 xmlns:xlink="http://www.w3.org/1999/xlink">
 <defs>
  <style type="text/css">
   <![CDATA[
    .fil0 {fill:#81B144}
   ]]>
  </style>
 </defs>
 <g id="Слой_x0020_1">
  <metadata id="CorelCorpID_0Corel-Layer"/>
  <path class="fil0" d="M59.26 -0.01c-32.46,0 -58.86,26.41 -58.86,58.86 0,40.79 58.92,110.48 58.92,110.48 0,0 58.8,-71.69 58.8,-110.48 0,-32.45 -26.4,-58.86 -58.86,-58.86zm17.76 76.1c-4.9,4.89 -11.33,7.34 -17.76,7.34 -6.43,0 -12.86,-2.45 -17.76,-7.34 -9.79,-9.79 -9.79,-25.73 0,-35.52 4.74,-4.74 11.05,-7.36 17.76,-7.36 6.71,0 13.02,2.62 17.76,7.36 9.79,9.79 9.79,25.73 0,35.52zm0 0z"/>
 </g>
</svg>
