<?xml version="1.0" encoding="UTF-8"?>
<!DOCTYPE svg PUBLIC "-//W3C//DTD SVG 1.1//EN" "http://www.w3.org/Graphics/SVG/1.1/DTD/svg11.dtd">
<!-- Creator: CorelDRAW 2019 (64-Bit) -->
<svg xmlns="http://www.w3.org/2000/svg" xml:space="preserve" width="1.6932mm" height="1.6932mm" version="1.1" style="shape-rendering:geometricPrecision; text-rendering:geometricPrecision; image-rendering:optimizeQuality; fill-rule:evenodd; clip-rule:evenodd"
viewBox="0 0 169.32 169.32"
 xmlns:xlink="http://www.w3.org/1999/xlink">
 <defs>
  <style type="text/css">
   <![CDATA[
    .fil0 {fill:white}
   ]]>
  </style>
 </defs>
 <g id="Слой_x0020_1">
  <metadata id="CorelCorpID_0Corel-Layer"/>
  <path class="fil0" d="M84.66 -0.01c-46.69,0 -84.67,37.98 -84.67,84.67 0,46.69 37.98,84.67 84.67,84.67 46.69,0 84.67,-37.98 84.67,-84.67 0,-46.69 -37.98,-84.67 -84.67,-84.67zm40.27 128.46c-1.38,1.38 -3.19,2.07 -4.99,2.07 -1.81,0 -3.62,-0.69 -4.99,-2.07l-35.28 -35.27c-1.32,-1.32 -2.07,-3.12 -2.07,-4.99l0 -45.86c0,-3.9 3.16,-7.06 7.06,-7.06 3.9,0 7.06,3.16 7.06,7.06l0 42.94 33.21 33.21c2.75,2.76 2.75,7.21 0,9.97l0 0zm0 0z"/>
 </g>
</svg>
