<?xml version="1.0" encoding="UTF-8"?>
<!DOCTYPE svg PUBLIC "-//W3C//DTD SVG 1.1//EN" "http://www.w3.org/Graphics/SVG/1.1/DTD/svg11.dtd">
<!-- Creator: CorelDRAW 2019 (64-Bit) -->
<svg xmlns="http://www.w3.org/2000/svg" xml:space="preserve" width="0.9312mm" height="0.8466mm" version="1.1" style="shape-rendering:geometricPrecision; text-rendering:geometricPrecision; image-rendering:optimizeQuality; fill-rule:evenodd; clip-rule:evenodd"
viewBox="0 0 93.12 84.66"
 xmlns:xlink="http://www.w3.org/1999/xlink"
 enable-background="new 0 0 24 24">
 <defs>
  <style type="text/css">
   <![CDATA[
    .fil0 {fill:#81B144}
   ]]>
  </style>
 </defs>
 <g id="Слой_x0020_1">
  <metadata id="CorelCorpID_0Corel-Layer"/>
  <path class="fil0" d="M-2.78 47.73c-1.05,1.23 -1.56,2.79 -1.44,4.41 0.13,1.61 0.87,3.08 2.1,4.13l29.89 25.63c1.11,0.95 2.49,1.45 3.93,1.45 0.18,0 0.36,0 0.55,-0.02 1.63,-0.14 3.1,-0.92 4.15,-2.19l51.12 -62.22c1.02,-1.26 1.5,-2.83 1.35,-4.44 -0.17,-1.61 -0.94,-3.07 -2.19,-4.1l-9.36 -7.68c-2.58,-2.12 -6.4,-1.75 -8.52,0.83l-39.34 47.89 -15.81 -13.54c-2.54,-2.17 -6.37,-1.88 -8.54,0.66l-7.89 9.19z"/>
 </g>
</svg>
