<?xml version="1.0" encoding="UTF-8"?>
<!DOCTYPE svg PUBLIC "-//W3C//DTD SVG 1.1//EN" "http://www.w3.org/Graphics/SVG/1.1/DTD/svg11.dtd">
<!-- Creator: CorelDRAW 2019 (64-Bit) -->
<svg xmlns="http://www.w3.org/2000/svg" xml:space="preserve" width="1.8626mm" height="1.3546mm" version="1.1" style="shape-rendering:geometricPrecision; text-rendering:geometricPrecision; image-rendering:optimizeQuality; fill-rule:evenodd; clip-rule:evenodd"
viewBox="0 0 186.26 135.46"
 xmlns:xlink="http://www.w3.org/1999/xlink">
 <defs>
  <style type="text/css">
   <![CDATA[
    .fil0 {fill:#81B144}
   ]]>
  </style>
 </defs>
 <g id="Слой_x0020_1">
  <metadata id="CorelCorpID_0Corel-Layer"/>
  <path class="fil0" d="M178.5 75.49l-170.74 0c-4.29,0 -7.77,-3.47 -7.77,-7.76 0,-4.28 3.48,-7.76 7.77,-7.76l170.74 0c4.29,0 7.77,3.48 7.77,7.76 0,4.29 -3.48,7.76 -7.77,7.76l0 0zm0 59.5l-170.74 0c-4.29,0 -7.77,-3.47 -7.77,-7.76 0,-4.28 3.48,-7.76 7.77,-7.76l170.74 0c4.29,0 7.77,3.48 7.77,7.76 0,4.29 -3.48,7.76 -7.77,7.76l0 0zm0 -119l-170.74 0c-4.29,0 -7.77,-3.48 -7.77,-7.76 0,-4.29 3.48,-7.76 7.77,-7.76l170.74 0c4.29,0 7.77,3.47 7.77,7.76 0,4.28 -3.48,7.76 -7.77,7.76l0 0z"/>
 </g>
</svg>
