<?xml version="1.0" encoding="UTF-8"?>
<!DOCTYPE svg PUBLIC "-//W3C//DTD SVG 1.1//EN" "http://www.w3.org/Graphics/SVG/1.1/DTD/svg11.dtd">
<!-- Creator: CorelDRAW 2019 (64-Bit) -->
<svg xmlns="http://www.w3.org/2000/svg" xml:space="preserve" width="1.6932mm" height="1.6932mm" version="1.1" style="shape-rendering:geometricPrecision; text-rendering:geometricPrecision; image-rendering:optimizeQuality; fill-rule:evenodd; clip-rule:evenodd"
viewBox="0 0 169.32 169.32"
 xmlns:xlink="http://www.w3.org/1999/xlink">
 <defs>
  <style type="text/css">
   <![CDATA[
    .fil0 {fill:#81B144}
   ]]>
  </style>
 </defs>
 <g id="Слой_x0020_1">
  <metadata id="CorelCorpID_0Corel-Layer"/>
  <path class="fil0" d="M168.97 131.2c-0.48,-1.45 -3.53,-3.57 -9.14,-6.38 -1.53,-0.88 -3.69,-2.08 -6.5,-3.6 -2.8,-1.53 -5.35,-2.93 -7.63,-4.21 -2.29,-1.29 -4.44,-2.53 -6.44,-3.73 -0.32,-0.24 -1.32,-0.94 -3,-2.11 -1.69,-1.16 -3.11,-2.02 -4.28,-2.58 -1.16,-0.56 -2.3,-0.84 -3.42,-0.84 -1.61,0 -3.61,1.14 -6.01,3.42 -2.41,2.29 -4.61,4.77 -6.62,7.46 -2,2.69 -4.13,5.17 -6.37,7.46 -2.25,2.28 -4.09,3.43 -5.53,3.43 -0.73,0 -1.63,-0.21 -2.71,-0.6 -1.08,-0.41 -1.9,-0.75 -2.47,-1.03 -0.56,-0.28 -1.52,-0.84 -2.88,-1.68 -1.37,-0.84 -2.13,-1.31 -2.29,-1.39 -10.98,-6.09 -20.4,-13.07 -28.26,-20.92 -7.86,-7.86 -14.83,-17.28 -20.93,-28.27 -0.08,-0.16 -0.54,-0.92 -1.38,-2.28 -0.84,-1.36 -1.4,-2.32 -1.68,-2.89 -0.29,-0.56 -0.63,-1.38 -1.03,-2.46 -0.4,-1.08 -0.6,-1.99 -0.6,-2.71 0,-1.44 1.15,-3.29 3.43,-5.53 2.29,-2.25 4.77,-4.37 7.46,-6.37 2.68,-2.01 5.17,-4.21 7.45,-6.62 2.29,-2.4 3.43,-4.41 3.43,-6.01 0,-1.12 -0.28,-2.26 -0.84,-3.43 -0.56,-1.16 -1.42,-2.58 -2.59,-4.27 -1.16,-1.68 -1.86,-2.68 -2.1,-3.01 -1.2,-2 -2.45,-4.14 -3.73,-6.43 -1.28,-2.28 -2.69,-4.83 -4.21,-7.64 -1.52,-2.8 -2.72,-4.97 -3.61,-6.49 -2.8,-5.61 -4.93,-8.66 -6.37,-9.14 -0.56,-0.24 -1.4,-0.36 -2.53,-0.36 -2.16,0 -4.99,0.4 -8.47,1.2 -3.49,0.8 -6.24,1.65 -8.24,2.53 -4.01,1.68 -8.26,6.57 -12.75,14.67 -4.09,7.53 -6.14,14.99 -6.14,22.37 0,2.16 0.15,4.27 0.43,6.31 0.28,2.05 0.78,4.35 1.5,6.92 0.72,2.56 1.3,4.47 1.74,5.71 0.44,1.24 1.26,3.47 2.47,6.67 1.2,3.21 1.92,5.18 2.16,5.9 2.81,7.86 6.14,14.87 9.98,21.04 6.33,10.27 14.98,20.87 25.92,31.82 10.94,10.94 21.55,19.58 31.81,25.91 6.17,3.85 13.19,7.18 21.05,9.99 0.72,0.24 2.68,0.96 5.89,2.16 3.21,1.21 5.43,2.03 6.67,2.47 1.25,0.44 3.15,1.02 5.72,1.74 2.56,0.73 4.87,1.23 6.91,1.51 2.05,0.28 4.15,0.42 6.32,0.42 7.37,0 14.83,-2.05 22.37,-6.13 8.09,-4.49 12.98,-8.74 14.67,-12.75 0.88,-2.01 1.72,-4.75 2.52,-8.24 0.81,-3.49 1.2,-6.31 1.2,-8.48 0.01,-1.13 -0.11,-1.97 -0.35,-2.53z"/>
 </g>
</svg>
