<?xml version="1.0" encoding="UTF-8"?>
<!DOCTYPE svg PUBLIC "-//W3C//DTD SVG 1.1//EN" "http://www.w3.org/Graphics/SVG/1.1/DTD/svg11.dtd">
<!-- Creator: CorelDRAW 2019 (64-Bit) -->
<svg xmlns="http://www.w3.org/2000/svg" xml:space="preserve" width="5.0798mm" height="4.8378mm" version="1.1" style="shape-rendering:geometricPrecision; text-rendering:geometricPrecision; image-rendering:optimizeQuality; fill-rule:evenodd; clip-rule:evenodd"
viewBox="0 0 507.98 483.78"
 xmlns:xlink="http://www.w3.org/1999/xlink">
 <defs>
  <style type="text/css">
   <![CDATA[
    .fil0 {fill:#81B144}
   ]]>
  </style>
 </defs>
 <g id="Слой_x0020_1">
  <metadata id="CorelCorpID_0Corel-Layer"/>
  <path class="fil0" d="M146.83 231.46l122.04 0 0 28.77 -122.04 0 0 -28.77zm281.33 -144.86l79.83 0 0 300.36 -79.83 0 0 -300.36zm39.91 -82.98l0 0c21.96,0 39.92,17.96 39.92,39.92l0 12.42 -79.83 0 0 -12.42c0,-21.96 17.96,-39.92 39.91,-39.92zm-0.5 483.82c3.38,-2.47 7,-11.99 9.27,-16.54 3.17,-6.34 5.75,-11.51 8.93,-17.86 2.95,-5.9 16.59,-32.02 17.53,-36.05l-70.45 0 34.72 70.45zm-340.58 -334.36l160.73 0 0 -35.72 -160.73 0 0 35.72zm-29.77 -65.49l220.27 0 0 95.25 -220.27 0 0 -95.25zm-78.38 -57.54l-18.85 0 0 30.75 18.85 0 0 26.79 -18.85 0 0 29.77 18.85 0 0 26.79 -18.85 0 0 30.75 18.85 0 0 26.79 -18.85 0 0 30.76 18.85 0 0 26.79 -18.85 0 0 30.76 18.85 0 0 26.78 -18.85 0 0 30.76 18.85 0 0 26.79 -18.85 0 0 30.76 18.85 0 0 26.79 -18.85 0 0 30.75 18.85 0 0 23.82 377.03 0 0 -481.21 -377.03 0 0 24.81z"/>
 </g>
</svg>
