<?xml version="1.0" encoding="utf-8"?><svg xmlns="http://www.w3.org/2000/svg" xmlns:xlink="http://www.w3.org/1999/xlink"><symbol viewBox="0 0 93.12 84.66" id="check" xmlns="http://www.w3.org/2000/svg"><path d="M-2.78 47.73a6.048 6.048 0 00-1.44 4.41c.13 1.61.87 3.08 2.1 4.13L27.77 81.9c1.11.95 2.49 1.45 3.93 1.45.18 0 .36 0 .55-.02 1.63-.14 3.1-.92 4.15-2.19l51.12-62.22a6.107 6.107 0 001.35-4.44 6.105 6.105 0 00-2.19-4.1L77.32 2.7a6.058 6.058 0 00-8.52.83L29.46 51.42 13.65 37.88c-2.54-2.17-6.37-1.88-8.54.66l-7.89 9.19z"/></symbol><symbol viewBox="0 0 97.16 97.16" id="clock" xmlns="http://www.w3.org/2000/svg"><path d="M48.58 0C21.793 0 0 21.793 0 48.58s21.793 48.58 48.58 48.58 48.58-21.793 48.58-48.58S75.367 0 48.58 0zm0 86.823c-21.087 0-38.244-17.155-38.244-38.243S27.493 10.337 48.58 10.337 86.824 27.492 86.824 48.58 69.667 86.823 48.58 86.823z"/><path d="M73.898 47.08H52.066V20.83a4 4 0 00-8 0v30.25a4 4 0 004 4h25.832a4 4 0 000-8z"/></symbol><symbol viewBox="0 0 7 10" id="dev-hleb-kroshki" xmlns="http://www.w3.org/2000/svg"><path d="M1.268 3.258l1.375 1.937-1.375 1.75m2.92-3.687l1.313 1.844-1.313 1.843"/></symbol><symbol viewBox="0 0 460.298 460.297" class="dhovered-paths" id="home" xmlns="http://www.w3.org/2000/svg"><path d="M230.149 120.939L65.986 256.274c0 .191-.048.472-.144.855-.094.38-.144.656-.144.852v137.041c0 4.948 1.809 9.236 5.426 12.847 3.616 3.613 7.898 5.431 12.847 5.431h109.63V303.664h73.097v109.64h109.629c4.948 0 9.236-1.814 12.847-5.435 3.617-3.607 5.432-7.898 5.432-12.847V257.981c0-.76-.104-1.334-.288-1.707L230.149 120.939z" data-original="#000000" class="dhovered-path dactive-path" data-old_color="#000000"/><path d="M457.122 225.438L394.6 173.476V56.989c0-2.663-.856-4.853-2.574-6.567-1.704-1.712-3.894-2.568-6.563-2.568h-54.816c-2.666 0-4.855.856-6.57 2.568-1.711 1.714-2.566 3.905-2.566 6.567v55.673l-69.662-58.245c-6.084-4.949-13.318-7.423-21.694-7.423-8.375 0-15.608 2.474-21.698 7.423L3.172 225.438c-1.903 1.52-2.946 3.566-3.14 6.136-.193 2.568.472 4.811 1.997 6.713l17.701 21.128c1.525 1.712 3.521 2.759 5.996 3.142 2.285.192 4.57-.476 6.855-1.998L230.149 95.817l197.57 164.741c1.526 1.328 3.521 1.991 5.996 1.991h.858c2.471-.376 4.463-1.43 5.996-3.138l17.703-21.125c1.522-1.906 2.189-4.145 1.991-6.716-.195-2.563-1.242-4.609-3.141-6.132z" data-original="#000000" class="dhovered-path dactive-path" data-old_color="#000000"/></symbol><symbol viewBox="0 0 279.38 152.38" id="look" xmlns="http://www.w3.org/2000/svg"><path d="M197.12 117.12zm-80.83-40.83c0-2.19 1.02-5.89 1.7-7.58 2.68-6.76 10.56-11.52 17.4-11.52 10.2 0 19.1 8.9 19.1 19.1 0 16.97-21.48 25.31-32.49 13.39-2.91-3.14-5.71-7.73-5.71-13.39zm-16.37-2.18c0 9.29 1.02 15.01 6.32 22.6 5.9 8.45 16.35 15.05 26.97 15.05 11.27 0 16.67-1.63 25.03-8.25 2.84-2.25 3.97-3.57 6.08-6.48 9.6-13.26 8.69-30.47-1.71-43.59-2.25-2.84-3.57-3.97-6.48-6.08-24.17-17.5-56.21 1.84-56.21 26.75zM73.8 117.12zm4.36-40.93c0-3.88.91-9.37 1.58-12.61.78-3.77 2.01-7.46 3.51-10.68 20.67-44.34 82.18-45.88 104.24-.37 5.48 11.29 6.23 24.05 3.69 36.27-8.7 41.83-63.16 60.77-96.13 27.8-10.35-10.36-16.89-25.43-16.89-40.41zm118.96-40.93c7.23 1.68 31.32 18.59 37.74 23.39 3.44 2.57 18.27 14.79 20.11 17.54-1.78 2.66-3.9 3.58-6.15 5.86-8.75 8.88-42.87 33.01-51.7 35.07.87-3.26 12.02-15.86 12.01-40.93-.01-25.19-11.09-37.51-12.01-40.93zM73.8 117.12c-2.64-.62-13.64-6.92-16.05-8.51-10.16-6.72-26.98-17.69-35.38-26.28-2.19-2.24-4.72-3.6-6.42-6.14 1.78-2.66 3.9-3.59 6.15-5.86 2.18-2.21 4.21-3.87 6.72-5.83 16.04-12.62 17.42-13.75 36.56-25.1 2.23-1.33 5.93-3.56 8.42-4.14l-4.55 8.55c-11.2 22.39-9.64 47.06 1.99 68.76.96 1.79 2.04 2.6 2.56 4.55zm123.32-81.86zm-123.32 0zM-4.24 75.1c0 5.55.8 5.44 5.05 9.68l20.67 18.62c2.56 2.03 4.62 3.72 7.33 5.77 28.05 21.13 67.87 40.69 103.38 40.69 31.57 0 51.52-7.22 77.49-20.19l16.59-9.6c9.36-6.27 13.91-9.17 22.87-16.42l7.15-5.95c4.46-3.47 18.87-16.06 18.87-20.42 0-5.55-.8-5.44-5.05-9.69l-10.07-9.57c-1.42-1.19-1.96-1.98-3.43-3.11-8.23-6.31-11.97-9.77-22.14-17.15-23.77-17.27-63.15-35.24-95.74-35.24-25.29 0-47.44 5.32-68.76 15.82-9.64 4.75-16.36 8.1-25.32 13.97-9.01 5.89-14.45 9.64-22.87 16.42l-10.61 9.04C7.55 60.97-4.24 70.81-4.24 75.1z"/></symbol><symbol viewBox="0 0 338.66 270.92" id="mail" xmlns="http://www.w3.org/2000/svg"><defs><style>.ffil0{fill:#2075a1}</style></defs><g id="fСлой_x0020_1"><g id="f_1540715258896"><path class="ffil0" d="M308.42 268.51c7.62 0 14.21-2.51 19.82-7.48l-95.95-95.95c-2.3 1.65-4.53 3.25-6.64 4.77-7.18 5.29-13.01 9.42-17.48 12.38-4.48 2.97-10.43 5.99-17.86 9.07-7.44 3.09-14.37 4.63-20.79 4.63h-.38c-6.43 0-13.36-1.54-20.79-4.63-7.44-3.08-13.39-6.1-17.86-9.07-4.47-2.96-10.3-7.08-17.48-12.38-2.01-1.46-4.23-3.07-6.63-4.8l-95.97 95.98c5.61 4.97 12.21 7.48 19.82 7.48h278.19zM19.08 104.66C11.91 99.87 5.54 94.39 0 88.21V234.2l84.57-84.57c-16.92-11.81-38.72-26.79-65.49-44.97zm300.69 0c-25.75 17.42-47.62 32.42-65.64 45l84.53 84.54V88.21c-5.42 6.05-11.71 11.53-18.89 16.45z"/><path class="ffil0" d="M308.42 2.41H30.24c-9.71 0-17.17 3.28-22.4 9.83C2.61 18.79 0 26.98 0 36.8c0 7.94 3.46 16.54 10.39 25.8 6.93 9.26 14.3 16.54 22.11 21.83 4.29 3.03 17.2 12 38.75 26.93 11.63 8.06 21.74 15.09 30.44 21.15 7.41 5.16 13.8 9.63 19.07 13.34.61.43 1.56 1.11 2.82 2.01 1.37.98 3.09 2.22 5.22 3.76 4.09 2.96 7.49 5.35 10.2 7.18 2.71 1.83 5.98 3.87 9.83 6.14 3.84 2.27 7.47 3.97 10.87 5.11 3.4 1.13 6.55 1.7 9.45 1.7h.37c2.9 0 6.05-.57 9.45-1.7 3.4-1.14 7.02-2.84 10.87-5.11 3.84-2.27 7.11-4.31 9.83-6.14 2.71-1.83 6.11-4.22 10.2-7.18 2.13-1.54 3.85-2.78 5.21-3.75 1.27-.91 2.22-1.59 2.83-2.02 4.11-2.86 10.51-7.31 19.12-13.29 15.67-10.88 38.75-26.91 69.33-48.13 9.19-6.42 16.88-14.18 23.05-23.24 6.16-9.07 9.25-18.59 9.25-28.54 0-8.32-2.99-15.43-8.97-21.36-5.99-5.92-13.08-8.88-21.27-8.88z"/></g></g></symbol><symbol viewBox="0 0 338.66 270.92" id="mail-white" xmlns="http://www.w3.org/2000/svg"><defs><style>.gfil0{fill:#fefefe}</style></defs><g id="gСлой_x0020_1"><g id="g_1540745536592"><path class="gfil0" d="M308.42 268.51c7.62 0 14.21-2.51 19.82-7.48l-95.95-95.95c-2.3 1.65-4.53 3.25-6.64 4.77-7.18 5.29-13.01 9.42-17.48 12.38-4.48 2.97-10.43 5.99-17.86 9.07-7.44 3.09-14.37 4.63-20.79 4.63h-.38c-6.43 0-13.36-1.54-20.79-4.63-7.44-3.08-13.39-6.1-17.86-9.07-4.47-2.96-10.3-7.08-17.48-12.38-2.01-1.46-4.23-3.07-6.63-4.8l-95.97 95.98c5.61 4.97 12.21 7.48 19.82 7.48h278.19zM19.08 104.66C11.91 99.87 5.54 94.39 0 88.21V234.2l84.57-84.57c-16.92-11.81-38.72-26.79-65.49-44.97zm300.69 0c-25.75 17.42-47.62 32.42-65.64 45l84.53 84.54V88.21c-5.42 6.05-11.71 11.53-18.89 16.45z"/><path class="gfil0" d="M308.42 2.41H30.24c-9.71 0-17.17 3.28-22.4 9.83C2.61 18.79 0 26.98 0 36.8c0 7.94 3.46 16.54 10.39 25.8 6.93 9.26 14.3 16.54 22.11 21.83 4.29 3.03 17.2 12 38.75 26.93 11.63 8.06 21.74 15.09 30.44 21.15 7.41 5.16 13.8 9.63 19.07 13.34.61.43 1.56 1.11 2.82 2.01 1.37.98 3.09 2.22 5.22 3.76 4.09 2.96 7.49 5.35 10.2 7.18 2.71 1.83 5.98 3.87 9.83 6.14 3.84 2.27 7.47 3.97 10.87 5.11 3.4 1.13 6.55 1.7 9.45 1.7h.37c2.9 0 6.05-.57 9.45-1.7 3.4-1.14 7.02-2.84 10.87-5.11 3.84-2.27 7.11-4.31 9.83-6.14 2.71-1.83 6.11-4.22 10.2-7.18 2.13-1.54 3.85-2.78 5.21-3.75 1.27-.91 2.22-1.59 2.83-2.02 4.11-2.86 10.51-7.31 19.12-13.29 15.67-10.88 38.75-26.91 69.33-48.13 9.19-6.42 16.88-14.18 23.05-23.24 6.16-9.07 9.25-18.59 9.25-28.54 0-8.32-2.99-15.43-8.97-21.36-5.99-5.92-13.08-8.88-21.27-8.88z"/></g></g></symbol><symbol viewBox="0 0 186.26 135.46" id="menu" xmlns="http://www.w3.org/2000/svg"><path d="M178.5 75.49H7.76c-4.29 0-7.77-3.47-7.77-7.76 0-4.28 3.48-7.76 7.77-7.76H178.5c4.29 0 7.77 3.48 7.77 7.76 0 4.29-3.48 7.76-7.77 7.76zm0 59.5H7.76c-4.29 0-7.77-3.47-7.77-7.76 0-4.28 3.48-7.76 7.77-7.76H178.5c4.29 0 7.77 3.48 7.77 7.76 0 4.29-3.48 7.76-7.77 7.76zm0-119H7.76c-4.29 0-7.77-3.48-7.77-7.76C-.01 3.94 3.47.47 7.76.47H178.5c4.29 0 7.77 3.47 7.77 7.76 0 4.28-3.48 7.76-7.77 7.76z"/></symbol><symbol viewBox="0 0 512 512" id="minus" xmlns="http://www.w3.org/2000/svg"><path d="M477.675 127.498c-22.893-39.22-53.945-70.272-93.166-93.164C345.28 11.443 302.458 0 256.008 0c-46.445 0-89.281 11.443-128.502 34.333-39.223 22.889-70.276 53.941-93.169 93.165C11.443 166.723 0 209.559 0 256c0 46.445 11.446 89.273 34.334 128.5 22.892 39.22 53.944 70.272 93.167 93.167C166.727 500.556 209.559 512 256.003 512s89.281-11.444 128.504-34.333c39.222-22.887 70.273-53.947 93.164-93.167 22.887-39.225 34.328-82.059 34.328-128.5.001-46.446-11.442-89.283-34.324-128.502zm-72.333 149.836c0 5.776-2.114 10.783-6.337 14.999-4.22 4.22-9.222 6.337-15 6.337H128.001c-5.776 0-10.775-2.116-14.999-6.337-4.222-4.215-6.333-9.222-6.333-14.999v-42.67c0-5.777 2.112-10.777 6.333-15 4.223-4.223 9.221-6.335 14.999-6.335h256.004c5.777 0 10.779 2.112 15 6.335 4.223 4.221 6.337 9.221 6.337 15v42.67z"/><path d="M405.342 277.334c0 5.776-2.114 10.783-6.337 14.999-4.22 4.22-9.222 6.337-15 6.337H128.001c-5.776 0-10.775-2.116-14.999-6.337-4.222-4.215-6.333-9.222-6.333-14.999v-42.67c0-5.777 2.112-10.777 6.333-15 4.223-4.223 9.221-6.335 14.999-6.335h256.004c5.777 0 10.779 2.112 15 6.335 4.223 4.221 6.337 9.221 6.337 15v42.67z"/></symbol><symbol viewBox="0 0 507.98 482.58" id="need-help" xmlns="http://www.w3.org/2000/svg"><path d="M239.11 451.89c-13.81 0-17.86-10.21-17.86-21.83 0-6.68 8.73-13.19 12.65-17.12 5.04-5.04 9.51-11.65 19.1-11.65 9.95 0 17.86 7.82 17.86 18.85 0 11.39-21.87 31.75-31.75 31.75zm-59.53-36.71c-12.5 0-20.84-4.91-20.84-18.85 0-9.19 7.23-13.68 12.15-18.61 6.94-6.93 9.02-12.15 20.59-12.15 8.01 0 16.87 7.28 16.87 14.88v5.95c0 7.92-20.86 28.78-28.77 28.78zm-50.61-47.63h-5.95c-7.52 0-14.88-7.21-14.88-18.85 0-9.18 7.23-13.68 12.15-18.6 7.89-7.89 9.35-12.16 21.58-12.16 9.87 0 22.78 15.19 11.8 29.66-4.42 5.82-17.58 19.95-24.7 19.95zm-46.63-53.58c-5.81 0-10.23-1.89-13.46-5.39-14.7-15.9 3.64-28.89 11.23-36.53 4.06-4.09 5.72-7 12.96-7.88 18.44-2.25 27.56 18.1 13.85 32.71-5.29 5.62-14.86 17.09-24.58 17.09zm196.45-175.61h-6.94c-14.15 0-29.02-12.31-34.73-20.84 22.54-15.09 57.82-78.38 121.05-78.38 27.48 0 46.78 5.8 67.87 20.43l14.75 12.04c2.89 2.74 3.53 4.02 5.98 6.92 14.92 17.64 28.48 41.65 28.48 66.77 0 26.62-.86 34.25-12.89 58.55-3.68 7.43-18.38 28.42-24.82 32.73L315.75 115.29c-7.9 5.4-17.98 23.07-36.96 23.07zm-88.54-20.09c4.55 3.13 28.51 28.27 34.7 34.25 17.46 16.86 44.3 23.79 71.3 16.19 7.53-2.12 12.54-6.2 18.26-7.53 5.08 3.4 80.79 80.31 93.52 93.01 4.57 4.57 9.67 8.39 9.67 17.12 0 8.17-7.12 17.86-14.88 17.86-14.7 0-14.45-3.04-28.03-16.62-8.14-8.14-56.91-57.86-61.27-60.77l-22.58 23.06c2.62 4.01 60.53 61.14 69.97 70.44 15.23 15.03 4.58 33.5-10.68 33.5-10.74 0-18.16-10.72-24.06-16.62-8.14-8.14-56.91-57.86-61.27-60.77l-23.06 22.58c3.12 4.55 52.7 53.19 61.02 61.51 5.9 5.9 16.61 13.31 16.61 24.06 0 8.17-7.12 17.86-14.88 17.86-16.78 0-11.58-3.22-24.47-11.25-18.08-11.25-27.06-6.9-40.02-6.61-6.27-13.06-3.17-13.06-17.62-26.04-6.26-5.63-20.33-11.67-31.99-11.67 0-23.11-22.41-44.86-43.66-46.63 0-18.28-4.85-29.22-14.12-38.46-13.52-13.46-31.61-19.69-51.38-14.15-3.93 1.1-7.06 3.1-10.89 3.99-8.28-5.54-21.33-24.28-26.15-34.38C-4.36 100.18 106.52-2.97 206.32 57.04c7.2 4.33 19.34 14.04 23.86 20.79l-39.93 40.44zM-.01 146.29c0 33.11 3.91 49.48 17.86 76.4 1.14 2.2 1.74 3.58 3.16 5.77 2.5 3.87 4.91 7.59 7.6 11.26l17.02 19.68c-3.24 4.84-4.54 3.08-9.62 13.21-16.43 32.8 7.02 71.5 38.39 74.11 0 22.29 10.32 40.03 29.74 49.63 5.67 2.8 13.32 4.94 21.86 4.94 0 26.5 27.64 53.99 63.5 45.64 4.65 19.97 24.5 37.7 49.61 37.7 21.01 0 31.71-10.38 42.41-21.08 10.64-10.64 22.08-21.56 22.08-42.42 18.76 0 35.62-13.68 43.35-28.09 3.64-6.79 5.27-13.11 5.27-21.52 26.38 0 49.05-23.6 49.61-48.62 18.18 0 35.15-13.61 42-25.46 8.51-14.71 5.85-23.39 7.1-26.63l24.46-26.15c2.72-3.34 4.69-5.85 7.2-9.66 2.45-3.71 4.63-6.56 6.56-10.31 14.58-28.23 18.84-43.75 18.84-78.4 0-35.75-18.57-73.59-42.9-97.98l-19.03-15.7C392.6-6.12 312.65-1.05 264.66 43.86c-3.51 3.29-8.33 5.11-9.68 10.16-4.21-1.12-2.48-1.21-4.82-4.11-4.04-5-21.31-17.77-27.11-21.5-2.36-1.52-3.8-2.08-6.34-3.58C166.62-4.88 96.81 2.32 52.88 39.44c-3.49 2.96-6.29 5.15-9.49 8.38-24.8 25.05-43.4 61.78-43.4 98.47z"/></symbol><symbol viewBox="277.64 400.945 40 40" id="next" xmlns="http://www.w3.org/2000/svg"><path d="M308.985 419.848l-18.5-18.45a1.552 1.552 0 00-2.19 2.196l17.4 17.352-17.401 17.352a1.548 1.548 0 001.095 2.647c.396 0 .792-.15 1.095-.452l18.501-18.45a1.548 1.548 0 000-2.195z"/></symbol><symbol viewBox="0 0 626.52 507.98" id="pamyat" xmlns="http://www.w3.org/2000/svg"><path d="M309.07 381.15l2.53-51.49c13.64-1.86 28.15-5.44 41.67-7.8 4.82-.84 9.8 4.43 15.71 8.75l185.34 137.95-245.25-87.41zm-38.56-184.82c-9.93 4.91-10.5 6.18-18.01 13.46-12.05 11.69-28.56 22.94-14.41 38.36 3.61 3.94 21.91 18.44 26.76 20.8 1.73.83 3.82 1.72 6.25 1.47 6.7-.7-3.61-13.19 3.03-33.37 3.27-9.95 13.7-24 6.41-35.71-1.72-2.75-5.54-7.23-10.03-5.01zm43.79 5.11c3.09 1.48 8.22 2.17 10.99 3.94 4.2 2.68 1.04 8.43 2.55 12.95 4.31 4.81 13.66.12 18.91 3.13-1.25 6.25-10.03.11-16.08 3.85 1.05 5.4 8.8 3.36 14.19 3.29 5.9-.08 12.44-.89 18.09-1.66 23.27-3.13 62.9-1.73 83.56-12.72 3.32-1.76 9.17-6.13 9.08-10.28-11-6.43-99.84-4.33-123.85-3.76l-17.44 1.26zm54.14-50.47c3.46 1.06 22.14-3.09 31.56-3.7 8.89-.58 27.97-1.84 36.21-1.6 15.55.46 29.59 2.5 45.67 2.16 23.85-.49 64.62-12.52 82.28-29.91 3.24-3.19 5.79-4.96 8.45-7.82 15.8-16.97 31.78-39.63 31.88-63.81.03-5.45-.15-10.18-.79-15.37-.47-3.75-1.01-9.85-4.2-12.03-3.38.67-3.47 2.86-5.4 5.74-1.61 2.4-2.94 4-4.59 6.66-5.49 8.8-12.87 17.42-19.45 25.61l-11.59 11.54c-5.45 5.57-18.38 15.18-26.45 19.22-9.79 4.9-21.43 9.53-33.05 12.63-23.75 6.33-49.13 5.36-77.5 13.16-17.09 4.7-31.5 12.65-43.99 24.26-2.54 2.36-10.12 8.36-9.04 13.26zM529.04-.01h-2.71c-4.13 2.51-1.77.78-6.31 9.98-6.79 13.74-13.5 18.17-30.61 19.96-22.05 2.31-43.05.43-65.08.36-41.99-.13-86.28 1.07-125.55 8.57-17.8 3.4-37.44 7.74-52.2 14.87-16.94 8.19-25.65 16.26-35.8 31.75-17.35 26.44-20.01 48.59-9.39 79.88 1.21 3.57 6.38 21.61 10.74 22.83 1.1-5.76-2.84-25.43-3.44-32.4-.72-8.49.67-25.75 6.06-29.8 8.74 1.97-4.85 24.75 8.28 39.66 2.19 2.5 5.77 3.87 8.68 1.45 2.51-2.09 8.32-15.9 14.19-23.35 6.51-8.26 12.85-14.96 21.19-21.98 1.27-1.07 2.29-1.83 3.52-2.75 5.16-3.83 27.99-16.67 36.37-13.01.09.17.18.25.2.55.17 3.23-.38 4.29-3.65 8.48-9.87 12.68-27.52 20.5-28.19 40.09-.21 6.31 1.2 19.88 5.1 22.75 2.52-1.36 2.69-5.01 4.26-9.76 9.13-27.66 20.3-40.58 46.3-50.65 37.95-14.7 49.85-15.47 90.24-20.98 31.17-4.26 69.32-17.02 90.85-34.39 13.52-10.91 26.93-22.71 26.28-43.36-.14-4.16-2.12-13.6-4.52-16.29-1.9-2.11-2.78-1.22-4.81-2.46zM60.36 455.37l61.33-78.6c3.23-4.21 5.21-7.35 10.16-10.49l66.82-43.29c2.96-1.96 2.92-2.77 7.28-2.62 12.68.42 26.28.76 38.89 1.73-1.94 2.44-18.63 13.77-22.73 16.83a833.131 833.131 0 01-23.26 16.79L152.68 389c-7.69 5.61-15.26 10.8-22.89 16.51-15.49 11.61-30.65 21.68-46.17 33.29l-23.26 16.57zm310.03-153.84L594 300.09l-2.84 1.89c-1.28.58-2.15.94-3.45 1.54l-86.84 39.56c-4.82 2.18-5.24.86-14.05-2.01-12.06-3.94-113.67-37.56-116.43-39.54zm-266.48-9.16c3.11-2.04 70.21-14.9 84.52-17.78 8.9-1.79 8.24-.83 15.8 2.41 4.92 2.12 9.46 4.07 14.48 6.16 2.5 1.05 4.61 2 7.03 2.99 2.16.9 5.75 2.1 7.27 3.57l-129.1 2.65zM.9 304.04l-.15 26.9 27.16 12.28c14.56 6.42 72.8 31.53 82.16 36.59l-68.04 83.72c-8.44 10-6.51 7.23-6.64 18.81-.1 8.14-.62 17.66-.13 25.65h1.07c2.5-1.83 59.84-19.85 67.87-22.36 68.17-21.27 137.63-45.4 205.63-66.54 4.9-1.52 12.79 2.14 17.6 3.72 38.29 12.6 81.98 25.47 120.79 37.52 13.65 4.24 135.76 42.67 138.46 42.46-.05-8.17.4-16.65.63-24.84.18-6.27-3.95-10.22-8.6-17.36-6.89-10.59-13.63-20.58-20.29-31.02-3.27-5.13-39.13-58.91-40.45-62.51l107.81-45.02v-32.86c-14.92-1.09-30.84-3.31-45.74-4.99-22.84-2.57-179.88-19.05-183.97-20.69-26.8-10.78-42.89-30.49-77.17-22.35-16.59 3.93-26.72 22.75-24.05 25.88.99.79-1.28.61 1.81.62 1.69.01 4.38-2 5.68-3.02 4.3-3.41 14.91-15.44 18.23-16.81 7.66-3.17 35.28-9.57 33.48 4.79-3.86 3.03-7.01 2.01-12.66 2.85-4.63.7-7.08 3.25-10.18 5.52-11.2 8.21.48 11.45 9.2 13.8 3.34.89 9.99 2.33 7.83 6.91-2.99 6.34-18.13-6.57-24.37-1.79-4.21 3.22-1.29 6.41-9.33 6.99-20.79 1.49-40.85.31-61.63.06-16.55-.2-9.7.78-25.86-5.85-7.68-3.15-14.77-6.29-22.47-9.43-6.3-2.58-17.7-8.67-22.3-7.68C160.84 268.59 4.25 304.25.9 304.04z"/></symbol><symbol viewBox="0 0 169.32 169.32" id="phone" xmlns="http://www.w3.org/2000/svg"><path d="M168.97 131.2c-.48-1.45-3.53-3.57-9.14-6.38-1.53-.88-3.69-2.08-6.5-3.6-2.8-1.53-5.35-2.93-7.63-4.21-2.29-1.29-4.44-2.53-6.44-3.73-.32-.24-1.32-.94-3-2.11-1.69-1.16-3.11-2.02-4.28-2.58-1.16-.56-2.3-.84-3.42-.84-1.61 0-3.61 1.14-6.01 3.42a58.827 58.827 0 00-6.62 7.46c-2 2.69-4.13 5.17-6.37 7.46-2.25 2.28-4.09 3.43-5.53 3.43-.73 0-1.63-.21-2.71-.6-1.08-.41-1.9-.75-2.47-1.03-.56-.28-1.52-.84-2.88-1.68-1.37-.84-2.13-1.31-2.29-1.39-10.98-6.09-20.4-13.07-28.26-20.92-7.86-7.86-14.83-17.28-20.93-28.27-.08-.16-.54-.92-1.38-2.28-.84-1.36-1.4-2.32-1.68-2.89-.29-.56-.63-1.38-1.03-2.46s-.6-1.99-.6-2.71c0-1.44 1.15-3.29 3.43-5.53 2.29-2.25 4.77-4.37 7.46-6.37 2.68-2.01 5.17-4.21 7.45-6.62 2.29-2.4 3.43-4.41 3.43-6.01 0-1.12-.28-2.26-.84-3.43-.56-1.16-1.42-2.58-2.59-4.27-1.16-1.68-1.86-2.68-2.1-3.01-1.2-2-2.45-4.14-3.73-6.43-1.28-2.28-2.69-4.83-4.21-7.64-1.52-2.8-2.72-4.97-3.61-6.49-2.8-5.61-4.93-8.66-6.37-9.14-.56-.24-1.4-.36-2.53-.36-2.16 0-4.99.4-8.47 1.2-3.49.8-6.24 1.65-8.24 2.53-4.01 1.68-8.26 6.57-12.75 14.67C2.04 25.92-.01 33.38-.01 40.76c0 2.16.15 4.27.43 6.31.28 2.05.78 4.35 1.5 6.92.72 2.56 1.3 4.47 1.74 5.71.44 1.24 1.26 3.47 2.47 6.67 1.2 3.21 1.92 5.18 2.16 5.9 2.81 7.86 6.14 14.87 9.98 21.04 6.33 10.27 14.98 20.87 25.92 31.82 10.94 10.94 21.55 19.58 31.81 25.91 6.17 3.85 13.19 7.18 21.05 9.99.72.24 2.68.96 5.89 2.16 3.21 1.21 5.43 2.03 6.67 2.47 1.25.44 3.15 1.02 5.72 1.74 2.56.73 4.87 1.23 6.91 1.51 2.05.28 4.15.42 6.32.42 7.37 0 14.83-2.05 22.37-6.13 8.09-4.49 12.98-8.74 14.67-12.75.88-2.01 1.72-4.75 2.52-8.24.81-3.49 1.2-6.31 1.2-8.48.01-1.13-.11-1.97-.35-2.53z"/></symbol><symbol viewBox="0 0 169.32 169.32" id="phone-w" xmlns="http://www.w3.org/2000/svg"><path d="M168.97 131.2c-.48-1.45-3.53-3.57-9.14-6.38-1.53-.88-3.69-2.08-6.5-3.6-2.8-1.53-5.35-2.93-7.63-4.21-2.29-1.29-4.44-2.53-6.44-3.73-.32-.24-1.32-.94-3-2.11-1.69-1.16-3.11-2.02-4.28-2.58-1.16-.56-2.3-.84-3.42-.84-1.61 0-3.61 1.14-6.01 3.42a58.827 58.827 0 00-6.62 7.46c-2 2.69-4.13 5.17-6.37 7.46-2.25 2.28-4.09 3.43-5.53 3.43-.73 0-1.63-.21-2.71-.6-1.08-.41-1.9-.75-2.47-1.03-.56-.28-1.52-.84-2.88-1.68-1.37-.84-2.13-1.31-2.29-1.39-10.98-6.09-20.4-13.07-28.26-20.92-7.86-7.86-14.83-17.28-20.93-28.27-.08-.16-.54-.92-1.38-2.28-.84-1.36-1.4-2.32-1.68-2.89-.29-.56-.63-1.38-1.03-2.46s-.6-1.99-.6-2.71c0-1.44 1.15-3.29 3.43-5.53 2.29-2.25 4.77-4.37 7.46-6.37 2.68-2.01 5.17-4.21 7.45-6.62 2.29-2.4 3.43-4.41 3.43-6.01 0-1.12-.28-2.26-.84-3.43-.56-1.16-1.42-2.58-2.59-4.27-1.16-1.68-1.86-2.68-2.1-3.01-1.2-2-2.45-4.14-3.73-6.43-1.28-2.28-2.69-4.83-4.21-7.64-1.52-2.8-2.72-4.97-3.61-6.49-2.8-5.61-4.93-8.66-6.37-9.14-.56-.24-1.4-.36-2.53-.36-2.16 0-4.99.4-8.47 1.2-3.49.8-6.24 1.65-8.24 2.53-4.01 1.68-8.26 6.57-12.75 14.67C2.04 25.92-.01 33.38-.01 40.76c0 2.16.15 4.27.43 6.31.28 2.05.78 4.35 1.5 6.92.72 2.56 1.3 4.47 1.74 5.71.44 1.24 1.26 3.47 2.47 6.67 1.2 3.21 1.92 5.18 2.16 5.9 2.81 7.86 6.14 14.87 9.98 21.04 6.33 10.27 14.98 20.87 25.92 31.82 10.94 10.94 21.55 19.58 31.81 25.91 6.17 3.85 13.19 7.18 21.05 9.99.72.24 2.68.96 5.89 2.16 3.21 1.21 5.43 2.03 6.67 2.47 1.25.44 3.15 1.02 5.72 1.74 2.56.73 4.87 1.23 6.91 1.51 2.05.28 4.15.42 6.32.42 7.37 0 14.83-2.05 22.37-6.13 8.09-4.49 12.98-8.74 14.67-12.75.88-2.01 1.72-4.75 2.52-8.24.81-3.49 1.2-6.31 1.2-8.48.01-1.13-.11-1.97-.35-2.53z"/></symbol><symbol viewBox="0 0 512 512" id="plus" xmlns="http://www.w3.org/2000/svg"><path d="M477.675 127.498c-22.893-39.22-53.945-70.272-93.166-93.164C345.28 11.443 302.458 0 256.008 0c-46.445 0-89.281 11.443-128.502 34.333-39.223 22.889-70.276 53.941-93.169 93.165C11.443 166.723 0 209.559 0 256c0 46.445 11.446 89.273 34.334 128.5 22.892 39.22 53.944 70.272 93.167 93.167C166.727 500.556 209.559 512 256.003 512s89.281-11.444 128.504-34.333c39.222-22.887 70.273-53.947 93.164-93.167 22.887-39.225 34.328-82.059 34.328-128.5.001-46.446-11.442-89.283-34.324-128.502zm-72.333 149.836c0 5.776-2.114 10.783-6.337 14.999-4.227 4.22-9.226 6.337-15 6.337h-85.336v85.328c0 5.776-2.116 10.778-6.337 15.007-4.219 4.219-9.22 6.33-14.999 6.33h-42.665c-5.777 0-10.777-2.111-14.999-6.33-4.224-4.228-6.336-9.229-6.336-15.007V298.67H128c-5.777 0-10.775-2.116-14.999-6.337-4.222-4.215-6.333-9.222-6.333-14.999v-42.67c0-5.777 2.112-10.777 6.333-15 4.223-4.223 9.221-6.335 14.999-6.335h85.337v-85.333c0-5.778 2.112-10.775 6.335-14.999 4.222-4.222 9.222-6.333 14.999-6.333h42.67c5.777 0 10.78 2.112 14.999 6.333 4.22 4.223 6.338 9.221 6.338 14.999v85.333h85.327c5.777 0 10.779 2.112 15 6.335 4.223 4.221 6.337 9.221 6.337 15v42.67z"/><path d="M405.342 277.334c0 5.776-2.114 10.783-6.337 14.999-4.227 4.22-9.226 6.337-15 6.337h-85.336v85.328c0 5.776-2.116 10.778-6.337 15.007-4.219 4.219-9.22 6.33-14.999 6.33h-42.665c-5.777 0-10.777-2.111-14.999-6.33-4.224-4.228-6.336-9.229-6.336-15.007V298.67H128c-5.777 0-10.775-2.116-14.999-6.337-4.222-4.215-6.333-9.222-6.333-14.999v-42.67c0-5.777 2.112-10.777 6.333-15 4.223-4.223 9.221-6.335 14.999-6.335h85.337v-85.333c0-5.778 2.112-10.775 6.335-14.999 4.222-4.222 9.222-6.333 14.999-6.333h42.67c5.777 0 10.78 2.112 14.999 6.333 4.22 4.223 6.338 9.221 6.338 14.999v85.333h85.327c5.777 0 10.779 2.112 15 6.335 4.223 4.221 6.337 9.221 6.337 15v42.67z"/></symbol><symbol viewBox="0 0 118.52 169.32" id="point" xmlns="http://www.w3.org/2000/svg"><path d="M59.26-.01C26.8-.01.4 26.4.4 58.85c0 40.79 58.92 110.48 58.92 110.48s58.8-71.69 58.8-110.48c0-32.45-26.4-58.86-58.86-58.86zm17.76 76.1c-4.9 4.89-11.33 7.34-17.76 7.34-6.43 0-12.86-2.45-17.76-7.34-9.79-9.79-9.79-25.73 0-35.52 4.74-4.74 11.05-7.36 17.76-7.36 6.71 0 13.02 2.62 17.76 7.36 9.79 9.79 9.79 25.73 0 35.52zm0 0z"/></symbol><symbol viewBox="0 0 118.52 169.32" id="point-w" xmlns="http://www.w3.org/2000/svg"><path d="M59.26-.01C26.8-.01.4 26.4.4 58.85c0 40.79 58.92 110.48 58.92 110.48s58.8-71.69 58.8-110.48c0-32.45-26.4-58.86-58.86-58.86zm17.76 76.1c-4.9 4.89-11.33 7.34-17.76 7.34-6.43 0-12.86-2.45-17.76-7.34-9.79-9.79-9.79-25.73 0-35.52 4.74-4.74 11.05-7.36 17.76-7.36 6.71 0 13.02 2.62 17.76 7.36 9.79 9.79 9.79 25.73 0 35.52zm0 0z"/></symbol><symbol viewBox="0 0 507.98 483.78" id="pomojem" xmlns="http://www.w3.org/2000/svg"><path d="M146.83 231.46h122.04v28.77H146.83v-28.77zM428.16 86.6h79.83v300.36h-79.83V86.6zm39.91-82.98c21.96 0 39.92 17.96 39.92 39.92v12.42h-79.83V43.54c0-21.96 17.96-39.92 39.91-39.92zm-.5 483.82c3.38-2.47 7-11.99 9.27-16.54 3.17-6.34 5.75-11.51 8.93-17.86 2.95-5.9 16.59-32.02 17.53-36.05h-70.45l34.72 70.45zM126.99 153.08h160.73v-35.72H126.99v35.72zM97.22 87.59h220.27v95.25H97.22V87.59zM18.84 30.05H-.01V60.8h18.85v26.79H-.01v29.77h18.85v26.79H-.01v30.75h18.85v26.79H-.01v30.76h18.85v26.79H-.01V290h18.85v26.78H-.01v30.76h18.85v26.79H-.01v30.76h18.85v26.79H-.01v30.75h18.85v23.82h377.03V5.24H18.84v24.81z"/></symbol><symbol viewBox="0 0 135.46 135.46" id="search" xmlns="http://www.w3.org/2000/svg"><path d="M59.65-.01C26.76-.01-.01 26.76-.01 59.65c0 32.9 26.77 59.66 59.66 59.66 14.47 0 27.75-5.18 38.09-13.78l28.32 28.32a5.498 5.498 0 003.9 1.62c1.41 0 2.82-.54 3.89-1.62a5.51 5.51 0 000-7.79l-28.32-28.32c8.6-10.34 13.78-23.62 13.78-38.09 0-32.89-26.76-59.66-59.66-59.66zm0 108.31c-26.82 0-48.64-21.82-48.64-48.65 0-26.82 21.82-48.64 48.64-48.64 26.83 0 48.65 21.82 48.65 48.64 0 26.83-21.82 48.65-48.65 48.65z"/></symbol><symbol viewBox="0 0 169.32 169.32" id="time" xmlns="http://www.w3.org/2000/svg"><path d="M84.66-.01C37.97-.01-.01 37.97-.01 84.66c0 46.69 37.98 84.67 84.67 84.67 46.69 0 84.67-37.98 84.67-84.67 0-46.69-37.98-84.67-84.67-84.67zm40.27 128.46a7.043 7.043 0 01-4.99 2.07 7.01 7.01 0 01-4.99-2.07L79.67 93.18a7.071 7.071 0 01-2.07-4.99V42.33c0-3.9 3.16-7.06 7.06-7.06 3.9 0 7.06 3.16 7.06 7.06v42.94l33.21 33.21a7.056 7.056 0 010 9.97zm0 0z"/></symbol><symbol viewBox="0 0 169.32 169.32" id="time-w" xmlns="http://www.w3.org/2000/svg"><path d="M84.66-.01C37.97-.01-.01 37.97-.01 84.66c0 46.69 37.98 84.67 84.67 84.67 46.69 0 84.67-37.98 84.67-84.67 0-46.69-37.98-84.67-84.67-84.67zm40.27 128.46a7.043 7.043 0 01-4.99 2.07 7.01 7.01 0 01-4.99-2.07L79.67 93.18a7.071 7.071 0 01-2.07-4.99V42.33c0-3.9 3.16-7.06 7.06-7.06 3.9 0 7.06 3.16 7.06 7.06v42.94l33.21 33.21a7.056 7.056 0 010 9.97zm0 0z"/></symbol><symbol viewBox="0 0 512 512" id="x-button" xmlns="http://www.w3.org/2000/svg"><circle cx="256" cy="256" r="256"/><path d="M510.28 285.304L367.912 142.936 150.248 368.608l140.928 140.928c115.176-15.84 205.88-108.248 219.104-224.232z"/><path d="M354.376 371.536a19.954 19.954 0 01-14.144-5.856L146.408 171.848c-7.816-7.816-7.816-20.472 0-28.28s20.472-7.816 28.28 0L368.52 337.4c7.816 7.816 7.816 20.472 0 28.28a19.954 19.954 0 01-14.144 5.856z"/><path d="M160.544 371.536a19.954 19.954 0 01-14.144-5.856c-7.816-7.816-7.816-20.472 0-28.28l193.832-193.832c7.816-7.816 20.472-7.816 28.28 0s7.816 20.472 0 28.28L174.688 365.68a19.94 19.94 0 01-14.144 5.856z"/></symbol></svg>